# xmcd
#
# Track frame offsets: 
#        150
#        12140
#        27535
#        37135
#        48537
#        62337
#        74242
#        89770
#        108145
#        119467
#        131657
#        142007
#        156217
#        168480
#        181585
#        191945
#        203897
#        215950
#        231905
#
# Disc length: 3235 seconds
#
# Revision: 0
# Processed by: cddbd v1.5.2PL0 Copyright (c) Steve Scherf et al.
# Submitted via: ExactAudioCopy v0.99pb5
#
DISCID=290ca113
DTITLE=Creedence Clearwater Revival - Greatest Hits
DYEAR=1900
DGENRE=Blues
TTITLE0=Have you ever seen the rain
TTITLE1=Before you accuse me
TTITLE2=Travelin` band
TTITLE3=lookin` out my back door 
TTITLE4=Run throught the jungle
TTITLE5=Up around the band
TTITLE6=As long as I can see the light
TTITLE7=I heard it throught the grapevine
TTITLE8=Green river
TTITLE9=Commotion
TTITLE10=Bad moon rising 
TTITLE11=Londi
TTITLE12=Down on the corner
TTITLE13=Cotton fields
TTITLE14=Forunate son
TTITLE15=Molina
TTITLE16=Hey tonight
TTITLE17=(Iwish I could) Hideaway
TTITLE18=Who`ll stop the rain
EXTD=
EXTT0=
EXTT1=
EXTT2=
EXTT3=
EXTT4=
EXTT5=
EXTT6=
EXTT7=
EXTT8=
EXTT9=
EXTT10=
EXTT11=
EXTT12=
EXTT13=
EXTT14=
EXTT15=
EXTT16=
EXTT17=
EXTT18=
PLAYORDER=
